{"asset":{"generator":"3D Builder","version":"2.0"},"scene":0,"scenes":[{"nodes":[0,1]}],"nodes":[{"mesh":0,"matrix":[1,0,0,0,0,-1.1920928955078125E-7,-0.99999988079071045,0,0,0.99999988079071045,-1.1920928955078125E-7,0,-0.0059016072191298008,0.0210739616304636,0.0052948878146708012,1]},{"children":[2,3,4,5]},{"mesh":1,"matrix":[1,0,0,0,0,-1.1920928955078125E-7,-0.99999988079071045,0,0,0.99999988079071045,-1.1920928955078125E-7,0,-0.0059016072191298008,0.0210739616304636,0.0052948878146708012,1]},{"mesh":2,"matrix":[1,0,0,0,0,-1.1920928955078125E-7,-0.99999988079071045,0,0,0.99999988079071045,-1.1920928955078125E-7,0,-0.0059016072191298008,0.0210739616304636,0.0052948878146708012,1]},{"mesh":3,"matrix":[1,0,0,0,0,-1.1920928955078125E-7,-0.99999988079071045,0,0,0.99999988079071045,-1.1920928955078125E-7,0,-0.0059016072191298008,0.0210739616304636,0.0052948878146708012,1]},{"mesh":4,"matrix":[1,0,0,0,0,-1.1920928955078125E-7,-0.99999988079071045,0,0,0.99999988079071045,-1.1920928955078125E-7,0,-0.0059016072191298008,0.0210739616304636,0.0052948878146708012,1]}],"meshes":[{"primitives":[{"attributes":{"POSITION":0,"TEXCOORD_0":2},"mode":4,"indices":4,"material":0},{"attributes":{"POSITION":1,"COLOR_0":3},"mode":4,"indices":5}]},{"primitives":[{"attributes":{"POSITION":6,"COLOR_0":7},"mode":4,"indices":8}]},{"primitives":[{"attributes":{"POSITION":9,"COLOR_0":10},"mode":4,"indices":11}]},{"primitives":[{"attributes":{"POSITION":12,"COLOR_0":13},"mode":4,"indices":14}]},{"primitives":[{"attributes":{"POSITION":15,"TEXCOORD_0":17},"mode":4,"indices":19,"material":0},{"attributes":{"POSITION":16,"COLOR_0":18},"mode":4,"indices":20}]}],"materials":[{"pbrMetallicRoughness":{"baseColorFactor":[1,1,1,1],"metallicFactor":1,"roughnessFactor":1,"baseColorTexture":{"index":0,"texCoord":0},"metallicRoughnessTexture":{"index":1,"texCoord":0}},"alphaMode":"OPAQUE"}],"textures":[{"source":0,"sampler":0},{"source":1,"sampler":0}],"images":[{"uri":"1631497762_1024x1024_6195987693227547908.png"},{"uri":"954699739_128x128_17319628118832143767.png"}],"samplers":[{"magFilter":9729,"wrapS":10497,"wrapT":10497}],"accessors":[{"bufferView":0,"byteOffset":0,"count":57,"componentType":5126,"type":"VEC3","min":[-0.017537456005811691,-0.018144162371754646,0.017214076593518257],"max":[0.02934066578745842,0.028733953833580017,0.01981009915471077]},{"bufferView":0,"byteOffset":684,"count":65,"componentType":5126,"type":"VEC3","min":[-0.020311485975980759,-0.020918194204568863,0.017214076593518257],"max":[0.032114699482917786,0.031507976353168488,0.021105941385030746]},{"bufferView":1,"byteOffset":0,"count":57,"componentType":5126,"type":"VEC2"},{"bufferView":2,"byteOffset":0,"count":65,"componentType":5121,"type":"VEC4","normalized":true},{"bufferView":3,"byteOffset":0,"count":144,"componentType":5125,"type":"SCALAR"},{"bufferView":3,"byteOffset":576,"count":336,"componentType":5125,"type":"SCALAR"},{"bufferView":4,"byteOffset":0,"count":47,"componentType":5126,"type":"VEC3","min":[0.0096615245565772057,0.0066250693053007126,-0.0210739616304636],"max":[0.026296447962522507,0.017826706171035767,0.020673975348472595]},{"bufferView":5,"byteOffset":0,"count":47,"componentType":5121,"type":"VEC4","normalized":true},{"bufferView":6,"byteOffset":0,"count":270,"componentType":5125,"type":"SCALAR"},{"bufferView":7,"byteOffset":0,"count":48,"componentType":5126,"type":"VEC3","min":[-0.00052752252668142319,-0.0010874873260036111,-0.00073181942570954561],"max":[0.011753449216485023,0.011193480342626572,0.0011703192722052336]},{"bufferView":8,"byteOffset":0,"count":48,"componentType":5121,"type":"VEC4","normalized":true},{"bufferView":9,"byteOffset":0,"count":288,"componentType":5125,"type":"SCALAR"},{"bufferView":10,"byteOffset":0,"count":47,"componentType":5126,"type":"VEC3","min":[-0.015044793486595154,0.0066250693053007126,-0.021073963493108749],"max":[0.0015901322476565838,0.017826706171035767,0.020673977211117744]},{"bufferView":11,"byteOffset":0,"count":47,"componentType":5121,"type":"VEC4","normalized":true},{"bufferView":12,"byteOffset":0,"count":270,"componentType":5125,"type":"SCALAR"},{"bufferView":13,"byteOffset":0,"count":6,"componentType":5126,"type":"VEC3","min":[0.003843462560325861,-0.018157638609409332,0.017551112920045853],"max":[0.0074081923812627792,-0.016837943345308304,0.020673969760537148]},{"bufferView":13,"byteOffset":72,"count":46,"componentType":5126,"type":"VEC3","min":[0.003843462560325861,-0.018157638609409332,-0.0210739616304636],"max":[0.0074081923812627792,0.00041473135934211314,0.020673969760537148]},{"bufferView":14,"byteOffset":0,"count":6,"componentType":5126,"type":"VEC2"},{"bufferView":15,"byteOffset":0,"count":46,"componentType":5121,"type":"VEC4","normalized":true},{"bufferView":16,"byteOffset":0,"count":15,"componentType":5125,"type":"SCALAR"},{"bufferView":16,"byteOffset":60,"count":255,"componentType":5125,"type":"SCALAR"}],"bufferViews":[{"buffer":0,"byteOffset":0,"byteLength":1464,"byteStride":12,"target":34962},{"buffer":0,"byteOffset":1464,"byteLength":456,"byteStride":8,"target":34962},{"buffer":0,"byteOffset":1920,"byteLength":260,"byteStride":4,"target":34962},{"buffer":0,"byteOffset":2180,"byteLength":1920,"target":34963},{"buffer":0,"byteOffset":4100,"byteLength":564,"byteStride":12,"target":34962},{"buffer":0,"byteOffset":4664,"byteLength":188,"byteStride":4,"target":34962},{"buffer":0,"byteOffset":4852,"byteLength":1080,"target":34963},{"buffer":0,"byteOffset":5932,"byteLength":576,"byteStride":12,"target":34962},{"buffer":0,"byteOffset":6508,"byteLength":192,"byteStride":4,"target":34962},{"buffer":0,"byteOffset":6700,"byteLength":1152,"target":34963},{"buffer":0,"byteOffset":7852,"byteLength":564,"byteStride":12,"target":34962},{"buffer":0,"byteOffset":8416,"byteLength":188,"byteStride":4,"target":34962},{"buffer":0,"byteOffset":8604,"byteLength":1080,"target":34963},{"buffer":0,"byteOffset":9684,"byteLength":624,"byteStride":12,"target":34962},{"buffer":0,"byteOffset":10308,"byteLength":48,"byteStride":8,"target":34962},{"buffer":0,"byteOffset":10356,"byteLength":184,"byteStride":4,"target":34962},{"buffer":0,"byteOffset":10540,"byteLength":1080,"target":34963}],"buffers":[{"byteLength":11620,"uri":"table.bin"}]}